<svg version="1.1" id="Layer_1" xmlns="http://www.w3.org/2000/svg" xmlns:xlink="http://www.w3.org/1999/xlink" x="0px" y="0px" viewBox="0 0 24 24" style="enable-background:new 0 0 24 24;" xml:space="preserve">
<style type="text/css">
	.st0{fill:none;stroke:#000000;stroke-linecap:round;stroke-linejoin:round;stroke-miterlimit:10;}
	
		.st1{fill-rule:evenodd;clip-rule:evenodd;fill:none;stroke:#000000;stroke-linecap:round;stroke-linejoin:round;stroke-miterlimit:10;}
</style>
<path d="M12,1.23c-6.07,0-11,4.94-11,11.04c0,4.88,3.15,9.02,7.52,10.48c0.55,0.1,0.75-0.24,0.75-0.53
	c0-0.26-0.01-0.96-0.02-1.88c-3.06,0.67-3.71-1.48-3.71-1.48c-0.5-1.28-1.22-1.61-1.22-1.61c-1-0.69,0.07-0.67,0.07-0.67
	c1.1,0.08,1.68,1.14,1.68,1.14c0.06,0.1,0.12,0.17,0.19,0.25c-0.02-0.03-0.04-0.05-0.07-0.07c0.03,0.05,0.07,0.08,0.11,0.13
	c0.08,0.11,0.16,0.21,0.25,0.3c0.01,0.01,0.02,0.03,0.04,0.04c-0.01-0.01-0.02-0.02-0.02-0.03c0.96,0.92,2.18,0.54,2.71,0.3
	c0.1-0.71,0.38-1.2,0.7-1.48c-2.44-0.28-5.01-1.23-5.01-5.46c0-1.21,0.43-2.19,1.13-2.97C6,8.45,5.62,7.33,6.22,5.81
	c0,0,0.92-0.3,3.03,1.13C10.12,6.7,11.07,6.57,12,6.57c0.93,0,1.88,0.13,2.75,0.37c2.1-1.43,3.02-1.13,3.02-1.13
	c0.6,1.52,0.22,2.64,0.11,2.92c0.71,0.77,1.13,1.76,1.13,2.97c0,4.24-2.57,5.17-5.02,5.45c0.4,0.34,0.75,1.02,0.75,2.05
	c0,1.48-0.01,2.67-0.01,3.03c0,0.29,0.2,0.64,0.76,0.53c4.37-1.46,7.52-5.6,7.52-10.48C23,6.17,18.08,1.23,12,1.23z" stroke="#d1d5db" stroke-width="1px" stroke-linecap="round" stroke-miterlimit="10" fill="none"></path>
</svg>